<svg width="14" height="14" viewBox="0 0 14 14" fill="none" xmlns="http://www.w3.org/2000/svg">
<circle cx="7" cy="7" r="6.5" fill="#FBBF24" stroke="#F59E0B"/>
<path d="M9.69668 8.097C9.81962 7.8932 9.89193 7.66119 9.91363 7.40098H9.23565C9.21576 7.57384 9.17418 7.72033 9.1109 7.84043C9.04943 7.9587 8.95813 8.04878 8.837 8.11065C8.71767 8.17251 8.56129 8.20345 8.36784 8.20345C8.20874 8.20345 8.07224 8.1716 7.95834 8.10792C7.84444 8.04423 7.75042 7.95415 7.6763 7.8377C7.60398 7.72124 7.54974 7.58203 7.51358 7.42008C7.47923 7.25631 7.46206 7.07435 7.46206 6.87418V6.53845C7.46206 6.32737 7.48104 6.13995 7.51901 5.97618C7.55878 5.81059 7.61754 5.67138 7.69528 5.55856C7.77302 5.44574 7.86975 5.36022 7.98546 5.30199C8.10117 5.24376 8.23676 5.21465 8.39224 5.21465C8.58208 5.21465 8.73575 5.2474 8.85327 5.31291C8.97079 5.3766 9.05938 5.4694 9.11904 5.59132C9.18051 5.71323 9.22028 5.85972 9.23836 6.03077H9.91634C9.88922 5.76509 9.8151 5.52945 9.69396 5.32383C9.57464 5.1182 9.4065 4.95716 9.18955 4.8407C8.97259 4.72424 8.70683 4.66602 8.39224 4.66602C8.14456 4.66602 7.92127 4.70969 7.7224 4.79703C7.52533 4.88438 7.35629 5.01084 7.21527 5.17643C7.07425 5.3402 6.96578 5.53764 6.88984 5.76873C6.81572 5.99983 6.77865 6.25822 6.77865 6.54391V6.87418C6.77865 7.15987 6.81481 7.41826 6.88713 7.64936C6.96126 7.88046 7.06792 8.07789 7.20714 8.24166C7.34635 8.40361 7.51358 8.52917 7.70884 8.61833C7.9041 8.70568 8.12376 8.74935 8.36784 8.74935C8.68604 8.74935 8.95632 8.69112 9.1787 8.57466C9.40108 8.4582 9.57374 8.29898 9.69668 8.097Z" fill="white"/>
<path d="M6.55628 8.74662V8.20345H4.7637V4.66602H4.08301V8.74662H6.55628Z" fill="white"/>
</svg>
